<svg width="64" height="64" viewBox="0 0 64 64" fill="none" xmlns="http://www.w3.org/2000/svg">
<g clip-path="url(#clip0)">
<path d="M57.7621 47.635C56.9088 48.0813 56.0288 48.4745 55.1271 48.8125C52.2569 49.8864 49.2165 50.4335 46.1521 50.4275C34.3221 50.4275 24.0171 42.29 24.0171 31.8475C24.0322 30.4469 24.4209 29.0758 25.1429 27.8755C25.865 26.6753 26.8943 25.6896 28.1246 25.02C17.4246 25.47 14.6746 36.62 14.6746 43.1525C14.6746 61.6225 31.6971 63.495 35.3646 63.495C37.3421 63.495 40.3246 62.92 42.1146 62.355L42.4421 62.245C49.3302 59.8637 55.2023 55.2083 59.0921 49.045C59.2112 48.8573 59.2644 48.6353 59.2432 48.4139C59.2221 48.1926 59.1278 47.9847 58.9752 47.823C58.8227 47.6612 58.6206 47.555 58.4009 47.5209C58.1812 47.4869 57.9564 47.527 57.7621 47.635Z" fill="url(#paint0_linear)"/>
<path opacity="0.35" d="M57.7621 47.635C56.9088 48.0813 56.0288 48.4745 55.1271 48.8125C52.2569 49.8864 49.2165 50.4335 46.1521 50.4275C34.3221 50.4275 24.0171 42.29 24.0171 31.8475C24.0322 30.4469 24.4209 29.0758 25.1429 27.8755C25.865 26.6753 26.8943 25.6896 28.1246 25.02C17.4246 25.47 14.6746 36.62 14.6746 43.1525C14.6746 61.6225 31.6971 63.495 35.3646 63.495C37.3421 63.495 40.3246 62.92 42.1146 62.355L42.4421 62.245C49.3302 59.8637 55.2023 55.2083 59.0921 49.045C59.2112 48.8573 59.2644 48.6353 59.2432 48.4139C59.2221 48.1926 59.1278 47.9847 58.9752 47.823C58.8227 47.6612 58.6206 47.555 58.4009 47.5209C58.1812 47.4869 57.9564 47.527 57.7621 47.635Z" fill="url(#paint1_radial)"/>
<path d="M26.4269 60.3552C24.1971 58.9712 22.2646 57.1577 20.7419 55.0202C19.0064 52.6424 17.8121 49.9137 17.2428 47.0254C16.6735 44.1372 16.7431 41.1594 17.4465 38.3009C18.1499 35.4423 19.4703 32.7723 21.3148 30.4781C23.1594 28.1839 25.4836 26.321 28.1244 25.0202C28.9044 24.6527 30.2369 23.9877 32.0094 24.0202C33.2582 24.0293 34.4879 24.3274 35.6022 24.8913C36.7164 25.4551 37.685 26.2694 38.4319 27.2702C39.4415 28.6181 39.9981 30.2512 40.0219 31.9352C40.0219 31.8827 46.1369 12.0352 20.0219 12.0352C9.04693 12.0352 0.0219349 22.4502 0.0219349 31.5877C-0.0213553 36.4213 1.01287 41.2038 3.04943 45.5877C6.37775 52.6891 12.1981 58.321 19.4052 61.4139C26.6122 64.5068 34.7042 64.8453 42.1444 62.3652C39.5393 63.1865 36.787 63.4331 34.0774 63.0878C31.3678 62.7425 28.7653 61.8136 26.4494 60.3652L26.4269 60.3552Z" fill="url(#paint2_linear)"/>
<path opacity="0.41" d="M26.4269 60.3552C24.1971 58.9712 22.2646 57.1577 20.7419 55.0202C19.0064 52.6424 17.8121 49.9137 17.2428 47.0254C16.6735 44.1372 16.7431 41.1594 17.4465 38.3009C18.1499 35.4423 19.4703 32.7723 21.3148 30.4781C23.1594 28.1839 25.4836 26.321 28.1244 25.0202C28.9044 24.6527 30.2369 23.9877 32.0094 24.0202C33.2582 24.0293 34.4879 24.3274 35.6022 24.8913C36.7164 25.4551 37.685 26.2694 38.4319 27.2702C39.4415 28.6181 39.9981 30.2512 40.0219 31.9352C40.0219 31.8827 46.1369 12.0352 20.0219 12.0352C9.04693 12.0352 0.0219349 22.4502 0.0219349 31.5877C-0.0213553 36.4213 1.01287 41.2038 3.04943 45.5877C6.37775 52.6891 12.1981 58.321 19.4052 61.4139C26.6122 64.5068 34.7042 64.8453 42.1444 62.3652C39.5393 63.1865 36.787 63.4331 34.0774 63.0878C31.3678 62.7425 28.7653 61.8136 26.4494 60.3652L26.4269 60.3552Z" fill="url(#paint3_radial)"/>
<path d="M38.0765 37.215C37.874 37.4775 37.2515 37.84 37.2515 38.63C37.2515 39.2825 37.6765 39.91 38.4315 40.4375C42.0265 42.9375 48.804 42.6075 48.8215 42.6075C51.4853 42.6011 54.0986 41.8802 56.389 40.52C58.6995 39.1709 60.6171 37.2411 61.9516 34.9221C63.286 32.6031 63.991 29.9755 63.9965 27.3C64.0615 21.6975 61.9965 17.9725 61.1615 16.3225C55.864 5.96 44.429 1.56661e-07 31.994 1.56661e-07C23.5844 -0.000831393 15.5126 3.30875 9.52417 9.21293C3.53577 15.1171 0.112217 23.1413 -0.00604248 31.55C0.113958 22.415 9.19396 15.0375 19.994 15.0375C20.869 15.0375 25.859 15.1225 30.494 17.555C34.579 19.7 36.719 22.29 38.2065 24.8575C39.7515 27.525 40.0265 30.895 40.0265 32.2375C40.0265 33.58 39.3415 35.57 38.0765 37.215Z" fill="url(#paint4_radial)"/>
<path d="M38.0765 37.215C37.874 37.4775 37.2515 37.84 37.2515 38.63C37.2515 39.2825 37.6765 39.91 38.4315 40.4375C42.0265 42.9375 48.804 42.6075 48.8215 42.6075C51.4853 42.6011 54.0986 41.8802 56.389 40.52C58.6995 39.1709 60.6171 37.2411 61.9516 34.9221C63.286 32.6031 63.991 29.9755 63.9965 27.3C64.0615 21.6975 61.9965 17.9725 61.1615 16.3225C55.864 5.96 44.429 1.56661e-07 31.994 1.56661e-07C23.5844 -0.000831393 15.5126 3.30875 9.52417 9.21293C3.53577 15.1171 0.112217 23.1413 -0.00604248 31.55C0.113958 22.415 9.19396 15.0375 19.994 15.0375C20.869 15.0375 25.859 15.1225 30.494 17.555C34.579 19.7 36.719 22.29 38.2065 24.8575C39.7515 27.525 40.0265 30.895 40.0265 32.2375C40.0265 33.58 39.3415 35.57 38.0765 37.215Z" fill="url(#paint5_radial)"/>
</g>
<defs>
<linearGradient id="paint0_linear" x1="14.6746" y1="44.2625" x2="59.2596" y2="44.2625" gradientUnits="userSpaceOnUse">
<stop stop-color="#0C59A4"/>
<stop offset="1" stop-color="#114A8B"/>
</linearGradient>
<radialGradient id="paint1_radial" cx="0" cy="0" r="1" gradientUnits="userSpaceOnUse" gradientTransform="translate(39.2996 44.6139) scale(23.845 22.6527)">
<stop offset="0.72" stop-opacity="0"/>
<stop offset="0.95" stop-opacity="0.53"/>
<stop offset="1"/>
</radialGradient>
<linearGradient id="paint2_linear" x1="38.1794" y1="24.9227" x2="10.3319" y2="55.2552" gradientUnits="userSpaceOnUse">
<stop stop-color="#1B9DE2"/>
<stop offset="0.16" stop-color="#1595DF"/>
<stop offset="0.67" stop-color="#0680D7"/>
<stop offset="1" stop-color="#0078D4"/>
</linearGradient>
<radialGradient id="paint3_radial" cx="0" cy="0" r="1" gradientUnits="userSpaceOnUse" gradientTransform="translate(17.6431 49.7522) rotate(-81.3844) scale(35.8565 28.9685)">
<stop offset="0.76" stop-opacity="0"/>
<stop offset="0.95" stop-opacity="0.5"/>
<stop offset="1"/>
</radialGradient>
<radialGradient id="paint4_radial" cx="0" cy="0" r="1" gradientUnits="userSpaceOnUse" gradientTransform="translate(6.45958 11.8442) rotate(92.2906) scale(50.648 107.87)">
<stop stop-color="#35C1F1"/>
<stop offset="0.11" stop-color="#34C1ED"/>
<stop offset="0.23" stop-color="#2FC2DF"/>
<stop offset="0.31" stop-color="#2BC3D2"/>
<stop offset="0.67" stop-color="#36C752"/>
</radialGradient>
<radialGradient id="paint5_radial" cx="0" cy="0" r="1" gradientUnits="userSpaceOnUse" gradientTransform="translate(60.012 19.3515) rotate(73.7398) scale(24.335 19.7892)">
<stop stop-color="#66EB6E"/>
<stop offset="1" stop-color="#66EB6E" stop-opacity="0"/>
</radialGradient>
<clipPath id="clip0">
<rect width="64" height="64" fill="white" transform="translate(-0.000488281)"/>
</clipPath>
</defs>
</svg>
