<svg xmlns="http://www.w3.org/2000/svg" width="64" height="64" fill="none" viewBox="0 0 64 64"><path fill="#2B2E3A" d="M31.9995 64C49.6726 64 63.9995 49.6731 63.9995 32C63.9995 14.3269 49.6726 0 31.9995 0C14.3264 0 -0.000488281 14.3269 -0.000488281 32C-0.000488281 49.6731 14.3264 64 31.9995 64Z"/><path fill="#9FEAF9" d="M25.125 17.9224C18.6238 16.7384 13.4833 17.9776 11.4345 21.5261C9.90579 24.1741 10.3428 27.6849 12.4945 31.4376C12.537 31.5156 12.5947 31.5842 12.664 31.6396C12.7334 31.695 12.8132 31.7359 12.8986 31.7601C12.984 31.7842 13.0734 31.7911 13.1615 31.7802C13.2496 31.7694 13.3346 31.741 13.4117 31.6969C13.4887 31.6527 13.5561 31.5936 13.6099 31.5231C13.6638 31.4525 13.703 31.3719 13.7253 31.286C13.7476 31.2 13.7525 31.1105 13.7398 31.0227C13.727 30.9348 13.6969 30.8504 13.651 30.7744C11.713 27.3939 11.3358 24.3641 12.5893 22.1929C14.2913 19.2451 18.8763 18.1396 24.886 19.2341C25.0587 19.2629 25.2358 19.2225 25.379 19.1219C25.5222 19.0212 25.6201 18.8682 25.6515 18.6959C25.6829 18.5237 25.6453 18.346 25.5468 18.2013C25.4483 18.0566 25.2968 17.9564 25.125 17.9224ZM15.8753 35.9991C18.504 38.8879 21.9193 41.5976 25.8143 43.8461C35.245 49.2911 45.285 50.7464 50.233 47.3726C50.307 47.324 50.3706 47.2612 50.4201 47.1877C50.4695 47.1143 50.5039 47.0317 50.5211 46.9449C50.5383 46.858 50.538 46.7686 50.5203 46.6819C50.5026 46.5951 50.4678 46.5128 50.4179 46.4396C50.368 46.3665 50.304 46.304 50.2297 46.2558C50.1554 46.2077 50.0723 46.1748 49.9852 46.1591C49.898 46.1434 49.8086 46.1452 49.7222 46.1645C49.6358 46.1837 49.5541 46.22 49.4818 46.2711C45.0533 49.2906 35.5163 47.9081 26.481 42.6916C22.7025 40.5101 19.3953 37.8861 16.8615 35.1016C16.8027 35.0365 16.7316 34.9836 16.6523 34.946C16.573 34.9084 16.487 34.8868 16.3993 34.8825C16.3117 34.8782 16.224 34.8913 16.1414 34.9209C16.0588 34.9506 15.9828 34.9962 15.9179 35.0553C15.853 35.1144 15.8004 35.1857 15.7631 35.2652C15.7258 35.3446 15.7046 35.4307 15.7006 35.5184C15.6966 35.6061 15.71 35.6937 15.74 35.7762C15.77 35.8587 15.816 35.9344 15.8753 35.9991Z"/><path fill="#9FEAF9" d="M48.6545 35.1884C52.9115 30.1594 54.3978 25.1014 52.3533 21.5604C50.849 18.9547 47.6688 17.5789 43.442 17.5239C43.2669 17.5242 43.0988 17.5934 42.9743 17.7165C42.8497 17.8397 42.7786 18.0069 42.7763 18.182C42.7741 18.3572 42.8408 18.5262 42.9621 18.6525C43.0835 18.7789 43.2497 18.8524 43.4248 18.8572C47.226 18.9067 49.966 20.0919 51.1988 22.2272C52.8968 25.1684 51.5713 29.6789 47.6368 34.3269C47.579 34.3936 47.5351 34.4711 47.5075 34.5548C47.4799 34.6386 47.4692 34.727 47.4761 34.8149C47.4829 34.9028 47.5071 34.9885 47.5472 35.067C47.5874 35.1456 47.6427 35.2153 47.71 35.2723C47.7773 35.3293 47.8553 35.3723 47.9394 35.399C48.0234 35.4256 48.1119 35.4353 48.1998 35.4275C48.2876 35.4197 48.3731 35.3946 48.4511 35.3535C48.5292 35.3125 48.5983 35.2564 48.6545 35.1884ZM37.7143 18.1447C33.8653 18.9694 29.7683 20.5819 25.8338 22.8534C16.0983 28.4742 9.74753 36.7624 10.6295 42.7722C10.6413 42.8596 10.6703 42.9439 10.7149 43.02C10.7594 43.0962 10.8187 43.1628 10.8891 43.2159C10.9596 43.269 11.0399 43.3075 11.1254 43.3294C11.2109 43.3512 11.2999 43.3558 11.3872 43.343C11.4745 43.3302 11.5584 43.3001 11.634 43.2547C11.7096 43.2092 11.7755 43.1491 11.8277 43.078C11.8799 43.0069 11.9175 42.9261 11.9383 42.8404C11.9591 42.7546 11.9627 42.6656 11.9488 42.5784C11.1655 37.2424 17.1855 29.3862 26.5005 24.0082C30.3173 21.8044 34.2843 20.2432 37.9935 19.4484C38.0803 19.4313 38.1629 19.3971 38.2363 19.3478C38.3098 19.2984 38.3727 19.235 38.4214 19.1611C38.47 19.0872 38.5035 19.0044 38.5199 18.9174C38.5362 18.8305 38.5351 18.7411 38.5166 18.6546C38.498 18.5681 38.4625 18.4861 38.4119 18.4135C38.3614 18.3409 38.2969 18.279 38.2223 18.2316C38.1476 18.1841 38.0642 18.152 37.977 18.1371C37.8898 18.1221 37.8005 18.1247 37.7143 18.1447Z"/><path fill="#9FEAF9" d="M21.942 46.9385C24.168 53.1535 27.8093 56.9802 31.9038 56.9802C34.89 56.9802 37.6528 54.9445 39.8073 51.3607C39.8539 51.2856 39.8852 51.202 39.8992 51.1148C39.9132 51.0275 39.9098 50.9384 39.889 50.8525C39.8683 50.7666 39.8307 50.6856 39.7784 50.6144C39.7261 50.5431 39.6602 50.483 39.5844 50.4375C39.5087 50.3919 39.4247 50.3619 39.3372 50.3491C39.2498 50.3364 39.1607 50.3411 39.0751 50.3631C38.9895 50.3851 38.9091 50.4239 38.8386 50.4772C38.7681 50.5305 38.709 50.5973 38.6645 50.6737C36.7283 53.8945 34.35 55.6467 31.9038 55.6467C28.5025 55.6467 25.2548 52.2337 23.1975 46.4892C23.1694 46.4051 23.1247 46.3274 23.0661 46.2608C23.0076 46.1942 22.9363 46.1399 22.8565 46.1012C22.7767 46.0624 22.69 46.04 22.6014 46.0352C22.5128 46.0304 22.4242 46.0433 22.3407 46.0732C22.2571 46.1031 22.1804 46.1494 22.115 46.2093C22.0496 46.2692 21.9968 46.3416 21.9597 46.4221C21.9226 46.5027 21.9019 46.5899 21.899 46.6785C21.896 46.7672 21.9107 46.8556 21.9423 46.9385H21.942ZM42.2725 45.7227C43.425 42.0407 44.0438 37.7932 44.0438 33.367C44.0438 22.3222 40.178 12.8012 34.672 10.3565C34.5112 10.2891 34.3304 10.2874 34.1683 10.3518C34.0062 10.4162 33.8758 10.5415 33.8051 10.7009C33.7343 10.8603 33.7288 11.041 33.7897 11.2044C33.8507 11.3678 33.9732 11.5008 34.131 11.575C39.0418 13.7557 42.7103 22.7915 42.7103 33.367C42.7103 37.6612 42.111 41.7745 41.0003 45.3245C40.9727 45.4084 40.9621 45.497 40.969 45.5851C40.976 45.6732 41.0003 45.759 41.0407 45.8376C41.0812 45.9162 41.1368 45.9859 41.2044 46.0428C41.272 46.0997 41.3502 46.1426 41.4346 46.169C41.5189 46.1954 41.6076 46.2047 41.6956 46.1965C41.7836 46.1883 41.869 46.1627 41.947 46.1212C42.025 46.0797 42.094 46.0231 42.1499 45.9547C42.2058 45.8862 42.2476 45.8074 42.2728 45.7227H42.2725ZM54.8285 45.0697C54.8285 43.3075 53.4 41.879 51.6378 41.879C49.8755 41.879 48.447 43.3075 48.447 45.0697C48.447 46.832 49.8755 48.2605 51.6378 48.2605C53.4 48.2605 54.8285 46.832 54.8285 45.0697ZM53.4953 45.0697C53.4953 45.3136 53.4472 45.5552 53.3539 45.7805C53.2605 46.0059 53.1237 46.2107 52.9512 46.3832C52.7788 46.5556 52.574 46.6925 52.3486 46.7858C52.1233 46.8792 51.8817 46.9272 51.6378 46.9272C51.3939 46.9272 51.1523 46.8792 50.927 46.7858C50.7016 46.6925 50.4968 46.5556 50.3243 46.3832C50.1519 46.2107 50.015 46.0059 49.9217 45.7805C49.8283 45.5552 49.7803 45.3136 49.7803 45.0697C49.7803 44.5771 49.976 44.1046 50.3243 43.7563C50.6727 43.4079 51.1452 43.2122 51.6378 43.2122C52.1304 43.2122 52.6029 43.4079 52.9512 43.7563C53.2996 44.1046 53.4953 44.5771 53.4953 45.0697ZM12.1238 48.2605C13.8863 48.2605 15.3148 46.832 15.3148 45.0697C15.3148 43.3075 13.886 41.879 12.1238 41.879C10.3618 41.879 8.93304 43.3075 8.93304 45.0697C8.93304 46.832 10.3618 48.2605 12.1238 48.2605ZM12.1238 46.9272C11.6312 46.9272 11.1587 46.7315 10.8103 46.3832C10.462 46.0348 10.2663 45.5623 10.2663 45.0697C10.2663 44.5771 10.462 44.1046 10.8103 43.7563C11.1587 43.4079 11.6312 43.2122 12.1238 43.2122C12.6164 43.2122 13.0889 43.4079 13.4372 43.7563C13.7856 44.1046 13.9813 44.5771 13.9813 45.0697C13.9813 45.5623 13.7856 46.0348 13.4372 46.3832C13.0889 46.7315 12.6164 46.9272 12.1238 46.9272Z"/><path fill="#9FEAF9" d="M31.9037 13.611C33.666 13.611 35.0945 12.1825 35.0945 10.4202C35.0945 8.65799 33.666 7.22949 31.9037 7.22949C30.1415 7.22949 28.713 8.65799 28.713 10.4202C28.713 12.1825 30.1415 13.611 31.9037 13.611ZM31.9037 12.2777C31.4111 12.2777 30.9386 12.082 30.5903 11.7337C30.2419 11.3853 30.0462 10.9129 30.0462 10.4202C30.0462 9.9276 30.2419 9.45514 30.5903 9.10679C30.9386 8.75844 31.4111 8.56274 31.9037 8.56274C32.3963 8.56274 32.8688 8.75844 33.2172 9.10679C33.5655 9.45514 33.7612 9.9276 33.7612 10.4202C33.7612 10.9129 33.5655 11.3853 33.2172 11.7337C32.8688 12.082 32.3963 12.2777 31.9037 12.2777ZM32.391 35.6232C31.1447 35.8925 29.917 35.1005 29.6472 33.8542C29.518 33.2558 29.6318 32.6305 29.9636 32.116C30.2953 31.6014 30.8178 31.2396 31.4162 31.1102C32.6625 30.841 33.8902 31.633 34.1602 32.8792C34.4295 34.1255 33.6375 35.3535 32.391 35.6232Z"/></svg>