<svg xmlns="http://www.w3.org/2000/svg" width="64" height="64" fill="none" viewBox="0 0 64 64"><g clip-path="url(#clip0)"><g filter="url(#filter0_f)" opacity=".53"><path fill="#000" d="M61.8624 33.944C61.8624 37.7597 61.09 41.5381 59.5893 45.0634C58.0885 48.5886 55.8888 51.7918 53.1158 54.4899C50.3428 57.188 47.0508 59.3283 43.4277 60.7885C39.8045 62.2487 35.9213 63.0003 31.9997 63.0003C28.078 63.0003 24.1948 62.2487 20.5717 60.7885C16.9486 59.3283 13.6565 57.188 10.8835 54.4899C8.11049 51.7918 5.91082 48.5886 4.41007 45.0634C2.90933 41.5381 2.1369 37.7597 2.1369 33.944C2.1369 26.2378 5.28315 18.8472 10.8835 13.3981C16.4839 7.94898 24.0796 4.8877 31.9997 4.8877C35.9213 4.8877 39.8045 5.63926 43.4277 7.09947C47.0508 8.55969 50.3428 10.7 53.1158 13.3981C55.8888 16.0962 58.0885 19.2994 59.5893 22.8246C61.09 26.3499 61.8624 30.1283 61.8624 33.944Z"/></g><path fill="url(#paint0_linear)" stroke="#CDCDCD" stroke-linecap="round" stroke-linejoin="round" stroke-width=".093" d="M62.9995 31.379C62.9995 35.4925 62.1977 39.5657 60.6398 43.3661C59.0819 47.1665 56.7985 50.6196 53.9199 53.5283C51.0412 56.437 47.6238 58.7443 43.8627 60.3185C40.1016 61.8926 36.0705 62.7028 31.9995 62.7028C23.7778 62.7028 15.8929 59.4027 10.0792 53.5283C4.2656 47.654 0.999542 39.6866 0.999542 31.379C0.999542 23.0714 4.2656 15.1041 10.0792 9.22972C15.8929 3.35536 23.7778 0.0551779 31.9995 0.0551758C36.0705 0.0551755 40.1016 0.865394 43.8627 2.43956C47.6238 4.01373 51.0412 6.32103 53.9199 9.22972C56.7985 12.1384 59.0819 15.5915 60.6398 19.3919C62.1977 23.1923 62.9995 27.2655 62.9995 31.379Z"/><path fill="url(#paint1_radial)" d="M60.5703 31.3791C60.5703 39.0357 57.5602 46.3787 52.2021 51.7928C46.8441 57.2068 39.5769 60.2484 31.9995 60.2484C24.422 60.2484 17.1549 57.2068 11.7968 51.7928C6.43873 46.3787 3.42859 39.0357 3.42859 31.3791C3.42859 23.7225 6.43873 16.3794 11.7968 10.9654C17.1549 5.55135 24.422 2.50977 31.9995 2.50977C39.5769 2.50977 46.8441 5.55135 52.2021 10.9654C57.5602 16.3794 60.5703 23.7225 60.5703 31.3791Z"/><path fill="#F4F2F3" d="M31.9997 4.01514C31.7689 4.01514 31.5832 4.20284 31.5832 4.43603V9.291C31.5832 9.52419 31.7689 9.7119 31.9997 9.7119C32.2305 9.7119 32.4163 9.52419 32.4163 9.291V4.43603C32.4163 4.20284 32.2305 4.01514 31.9997 4.01514ZM29.2746 4.18917C29.247 4.18617 29.2186 4.18617 29.1899 4.18952C28.9604 4.21372 28.7949 4.4199 28.8189 4.65183L29.0288 6.68293C29.0528 6.91486 29.2569 7.0821 29.4864 7.05788C29.7159 7.03368 29.8814 6.82749 29.8575 6.59556L29.6476 4.56448C29.6267 4.36153 29.4678 4.20812 29.2746 4.18917H29.2746ZM34.7438 4.19117C34.5507 4.20997 34.3918 4.36336 34.3706 4.56628L34.1592 6.59721C34.1351 6.82912 34.3006 7.03551 34.5301 7.0599C34.7596 7.0843 34.9637 6.91722 34.9878 6.68531L35.1992 4.65421C35.2234 4.4223 35.0579 4.21608 34.8284 4.1917C34.7997 4.1887 34.7715 4.18871 34.7438 4.19118V4.19117ZM26.4753 4.59934C26.4476 4.59956 26.4194 4.60234 26.3912 4.60834C26.1654 4.65664 26.0221 4.87923 26.0699 5.10736L27.065 9.85696C27.1128 10.0851 27.3331 10.2299 27.5588 10.1816C27.7846 10.1333 27.9279 9.91088 27.8801 9.68275L26.885 4.93297C26.8432 4.73335 26.6694 4.59755 26.4753 4.59908L26.4753 4.59934ZM37.543 4.60335C37.349 4.60135 37.1751 4.73728 37.1331 4.93686L36.1346 9.68591C36.0866 9.91401 36.2298 10.1367 36.4555 10.1851C36.6813 10.2336 36.9016 10.0889 36.9496 9.86085L37.9481 5.11178C37.9961 4.88369 37.8529 4.66105 37.6271 4.6126C37.5989 4.6066 37.5707 4.6036 37.543 4.6036L37.543 4.60335ZM23.8038 5.36048C23.7498 5.35548 23.6941 5.36149 23.6393 5.37988C23.4198 5.45198 23.3005 5.68836 23.3718 5.91014L23.9963 7.85242C24.0677 8.0742 24.3018 8.19477 24.5213 8.12272C24.7408 8.05062 24.8599 7.81405 24.7886 7.59228L24.1641 5.65001C24.1106 5.48368 23.9655 5.37435 23.8038 5.36045V5.36048ZM40.1994 5.36148C40.0377 5.37538 39.8927 5.48471 39.8391 5.65104L39.2142 7.59314C39.1429 7.8149 39.2621 8.05148 39.4816 8.12357C39.701 8.19567 39.9352 8.07518 40.0065 7.85346L40.6314 5.91117C40.7028 5.6894 40.5836 5.45283 40.3641 5.38074C40.3093 5.36274 40.2534 5.35684 40.1994 5.36144V5.36148ZM21.1619 6.33735C21.1078 6.33835 21.053 6.35034 21.0003 6.37404C20.7895 6.46874 20.6951 6.71647 20.7889 6.92955L22.7404 11.366C22.8341 11.579 23.0793 11.6743 23.2901 11.5796C23.5009 11.4849 23.5955 11.2372 23.5018 11.0241L21.5501 6.58767C21.4798 6.42785 21.3243 6.33417 21.1619 6.33735ZM42.8711 6.35224C42.7088 6.34924 42.5532 6.44233 42.4827 6.60202L40.5252 11.0357C40.4312 11.2487 40.5251 11.4966 40.7359 11.5916C40.9467 11.6866 41.192 11.5916 41.286 11.3787L43.2435 6.945C43.3375 6.73204 43.2435 6.48412 43.0328 6.38912C42.9801 6.36542 42.9252 6.35342 42.8711 6.35222V6.35224ZM18.7097 7.64837C18.6298 7.64237 18.5474 7.66036 18.4724 7.70416C18.2726 7.82075 18.2046 8.07717 18.32 8.27911L19.3305 10.0477C19.4459 10.2497 19.6997 10.3184 19.8995 10.2018C20.0994 10.0852 20.1674 9.82877 20.052 9.62682L19.0414 7.85822C18.9693 7.73199 18.843 7.65781 18.7097 7.64839V7.64837ZM45.2897 7.64837C45.1564 7.65737 45.0303 7.73196 44.9582 7.85819L43.9474 9.62679C43.8321 9.82874 43.9003 10.0851 44.1001 10.2017C44.3 10.3183 44.5537 10.2496 44.6691 10.0477L45.6796 8.27908C45.795 8.07714 45.7271 7.82072 45.5272 7.70412C45.4523 7.66043 45.3697 7.64274 45.2897 7.64834V7.64837ZM16.3286 9.14902C16.2484 9.15202 16.1682 9.17803 16.0981 9.22933C15.9113 9.36625 15.87 9.62843 16.0056 9.81718L18.8268 13.747C18.9623 13.9357 19.222 13.9774 19.4088 13.8405C19.5956 13.7036 19.6369 13.4414 19.5013 13.2527L16.6799 9.32292C16.5951 9.20495 16.4621 9.14446 16.3286 9.14907V9.14902ZM47.7007 9.17043C47.5672 9.16543 47.4341 9.22593 47.3492 9.34373L44.5226 13.2697C44.3868 13.4583 44.4278 13.7205 44.6144 13.8577C44.8011 13.9949 45.0606 13.9536 45.1964 13.7651L48.0229 9.83916C48.1586 9.65059 48.1176 9.38832 47.931 9.25113C47.8611 9.19973 47.7808 9.17333 47.7007 9.17043ZM14.2002 10.9527C14.0938 10.9467 13.9853 10.9826 13.8996 11.0606C13.728 11.2166 13.7143 11.4816 13.8687 11.655L15.221 13.1729C15.3754 13.3462 15.6377 13.3601 15.8092 13.2041C15.9807 13.0481 15.9946 12.7828 15.8401 12.6095L14.488 11.0918C14.4108 11.0051 14.3065 10.9583 14.2002 10.9526V10.9527ZM49.8023 10.9557C49.696 10.9617 49.5917 11.0082 49.5145 11.0948L48.1622 12.6124C48.0078 12.7857 48.0214 13.0509 48.193 13.2069C48.3645 13.363 48.6268 13.349 48.7812 13.1757L50.1337 11.6582C50.2881 11.4849 50.2743 11.2196 50.1028 11.0636C50.017 10.9856 49.9088 10.9501 49.8024 10.9557L49.8023 10.9557ZM12.1602 12.9326C12.0539 12.9386 11.9498 12.9851 11.8726 13.0718C11.7182 13.2451 11.732 13.5101 11.9034 13.6662L15.4744 16.9144C15.6459 17.0704 15.9082 17.0564 16.0626 16.8832C16.217 16.7099 16.2034 16.4448 16.0318 16.2888L12.4607 13.0406C12.3749 12.9626 12.2665 12.927 12.1601 12.9327L12.1602 12.9326ZM51.8522 12.9468C51.7458 12.9408 51.6372 12.9766 51.5514 13.0546L47.9783 16.3002C47.8067 16.4561 47.7926 16.7212 47.9468 16.8946C48.1011 17.068 48.3636 17.0821 48.5352 16.9262L52.1085 13.6805C52.2801 13.5246 52.2941 13.2596 52.1398 13.0862C52.0626 12.9995 51.9585 12.9525 51.8521 12.9468H51.8522ZM10.4638 15.1367C10.3303 15.1317 10.1971 15.1925 10.1124 15.3104C9.97671 15.499 10.0179 15.7611 10.2046 15.8982L11.8397 17.0986C12.0264 17.2357 12.2858 17.1943 12.4214 17.0056C12.5571 16.8169 12.516 16.5546 12.3294 16.4176L10.6943 15.2172C10.6243 15.1658 10.544 15.1396 10.4638 15.1367L10.4638 15.1367ZM53.5469 15.152C53.4668 15.155 53.3865 15.1809 53.3165 15.2323L51.6807 16.4316C51.4939 16.5686 51.4526 16.8309 51.588 17.0196C51.7236 17.2084 51.983 17.2499 52.1698 17.113L53.8058 15.9137C53.9926 15.7768 54.0337 15.5146 53.8982 15.3259C53.8135 15.2079 53.6805 15.1474 53.5469 15.152V15.152ZM8.87854 17.4878C8.74525 17.4968 8.61915 17.5714 8.54702 17.6976C8.43163 17.8995 8.49962 18.1559 8.69948 18.2725L12.8605 20.7C13.0603 20.8166 13.3141 20.7479 13.4295 20.5459C13.5449 20.344 13.4769 20.0876 13.277 19.971L9.11601 17.5435C9.04109 17.4998 8.95851 17.4821 8.87854 17.4877V17.4878ZM55.1209 17.4878C55.0409 17.4818 54.9584 17.4998 54.8834 17.5436L50.7225 19.971C50.5226 20.0876 50.4546 20.344 50.57 20.546C50.6854 20.7479 50.9391 20.8166 51.139 20.7L55.3002 18.2726C55.5 18.156 55.568 17.8995 55.4526 17.6976C55.3804 17.5714 55.2542 17.4972 55.1209 17.4878V17.4878ZM7.67993 19.9937C7.5176 19.9897 7.36194 20.0836 7.29143 20.2433C7.19741 20.4563 7.29137 20.7042 7.50214 20.7992L9.3481 21.6312C9.55887 21.7262 9.80423 21.6312 9.89824 21.4183C9.99225 21.2053 9.8981 20.9574 9.68735 20.8624L7.84156 20.0304C7.78892 20.0066 7.73403 19.9948 7.67993 19.9937ZM56.3276 20.011C56.2735 20.012 56.2185 20.024 56.1658 20.0477L54.3195 20.8782C54.1086 20.9731 54.0143 21.2209 54.1082 21.4339C54.2021 21.647 54.4475 21.7422 54.6583 21.6474L56.5047 20.8167C56.7155 20.7219 56.8096 20.474 56.7157 20.261C56.6454 20.1012 56.4899 20.0078 56.3276 20.011ZM6.6117 22.6129C6.4499 22.6266 6.30487 22.7358 6.25125 22.9021C6.1798 23.1238 6.29873 23.3605 6.5182 23.4327L11.0866 24.9368C11.306 25.009 11.5402 24.8887 11.6117 24.6671C11.6832 24.4453 11.5642 24.2087 11.3447 24.1364L6.77638 22.6323C6.72156 22.6142 6.66562 22.6083 6.6117 22.6129V22.6129ZM57.3939 22.6309C57.3399 22.6259 57.2842 22.6319 57.2294 22.6503L52.6599 24.1511C52.4404 24.2232 52.3212 24.4598 52.3926 24.6816C52.4639 24.9033 52.6981 25.0238 52.9175 24.9517L57.4868 23.4508C57.7063 23.3788 57.8256 23.1422 57.7543 22.9204C57.7008 22.7541 57.5556 22.6447 57.3939 22.6309V22.6309ZM5.94616 25.3623C5.7521 25.3603 5.57805 25.4964 5.53607 25.696C5.48807 25.9241 5.63128 26.1467 5.85698 26.1952L7.83401 26.6197C8.05975 26.6682 8.28005 26.5235 8.32804 26.2955C8.37603 26.0674 8.23286 25.8447 8.00716 25.7963L6.0303 25.3717C6.0021 25.3657 5.97387 25.3627 5.94616 25.3627V25.3623ZM58.0542 25.3663C58.0265 25.3665 57.9985 25.3703 57.9703 25.3753L55.9932 25.7996C55.7675 25.8481 55.6244 26.0706 55.6723 26.2987C55.7203 26.5267 55.9406 26.6715 56.1664 26.6231L58.1432 26.1987C58.3689 26.1502 58.5122 25.9276 58.4643 25.6995C58.4223 25.5 58.2483 25.3642 58.0542 25.3659L58.0542 25.3663ZM5.44241 28.1278C5.24924 28.1465 5.09023 28.2997 5.06901 28.5026C5.04477 28.7345 5.20987 28.941 5.43936 28.9655L10.2175 29.4759C10.447 29.5004 10.6514 29.3334 10.6756 29.1015C10.6999 28.8696 10.5346 28.6632 10.3051 28.6387L5.52692 28.1282C5.49822 28.1252 5.47002 28.1252 5.44241 28.1278V28.1278ZM58.5615 28.1641C58.5339 28.1611 58.5055 28.1611 58.4768 28.1645L53.6981 28.6684C53.4686 28.6926 53.3031 28.8988 53.327 29.1307C53.351 29.3626 53.555 29.5299 53.7846 29.5057L58.5633 29.0017C58.7928 28.9775 58.9583 28.7713 58.9343 28.5394C58.9134 28.3365 58.7546 28.1831 58.5615 28.1641L58.5615 28.1641ZM5.36151 30.9587C5.13073 30.9587 4.94498 31.1465 4.94498 31.3796C4.94498 31.6128 5.13073 31.8005 5.36151 31.8005H7.3826C7.61337 31.8005 7.79931 31.6128 7.79931 31.3796C7.79931 31.1465 7.61337 30.9587 7.3826 30.9587H5.36151ZM56.6169 30.9587C56.3861 30.9587 56.2003 31.1465 56.2003 31.3796C56.2003 31.6128 56.3861 31.8005 56.6169 31.8005H58.6379C58.8687 31.8005 59.0545 31.6128 59.0545 31.3796C59.0545 31.1465 58.8687 30.9587 58.6379 30.9587H56.6169ZM10.2995 33.2533C10.2719 33.2502 10.2437 33.2502 10.215 33.2536L5.4361 33.7575C5.20657 33.7817 5.04113 33.9879 5.06506 34.2198C5.089 34.4518 5.29304 34.619 5.52257 34.5948L10.3015 34.0909C10.531 34.0667 10.6965 33.8605 10.6725 33.6285C10.6515 33.4256 10.4926 33.2722 10.2995 33.2533H10.2995ZM53.6974 33.283C53.5042 33.3017 53.3452 33.4549 53.324 33.6578C53.2998 33.8897 53.4649 34.0962 53.6944 34.1207L58.4725 34.6311C58.702 34.6556 58.9063 34.4886 58.9306 34.2567C58.9548 34.0249 58.7896 33.8184 58.5601 33.7939L53.7821 33.2834C53.7534 33.2804 53.725 33.2804 53.6974 33.2831L53.6974 33.283ZM7.91743 36.1265C7.88972 36.1268 7.86152 36.1295 7.83332 36.1355L5.85629 36.5599C5.63054 36.6084 5.48743 36.831 5.53537 37.0591C5.58337 37.2872 5.80368 37.4318 6.02943 37.3833L8.00646 36.9592C8.23219 36.9107 8.37529 36.688 8.32734 36.46C8.28538 36.2604 8.11151 36.1246 7.91746 36.1263L7.91743 36.1265ZM56.0815 36.1305C55.8874 36.1285 55.7136 36.2645 55.6716 36.464C55.6236 36.6921 55.7666 36.9148 55.9923 36.9632L57.9693 37.3878C58.1951 37.4363 58.4154 37.2918 58.4634 37.0637C58.5114 36.8356 58.3681 36.6128 58.1425 36.5643L56.1656 36.1398C56.1374 36.1338 56.1092 36.1308 56.0815 36.1308L56.0815 36.1305ZM11.2466 37.7883C11.1926 37.7833 11.137 37.7893 11.0821 37.8077L6.51264 39.3086C6.29316 39.3807 6.17396 39.6172 6.2453 39.839C6.31665 40.0608 6.55077 40.1812 6.77025 40.1091L11.3395 38.6083C11.559 38.5362 11.6784 38.2996 11.607 38.0778C11.5535 37.9115 11.4084 37.8022 11.2466 37.7883V37.7883ZM52.7484 37.8032C52.5866 37.8169 52.4415 37.9261 52.3879 38.0924C52.3165 38.3141 52.4354 38.5508 52.6549 38.6231L57.2233 40.1272C57.4427 40.1994 57.6769 40.0791 57.7484 39.8574C57.8199 39.6357 57.7009 39.399 57.4814 39.3268L52.913 37.8227C52.8582 37.8046 52.8023 37.7987 52.7484 37.8033V37.8032ZM9.50291 41.0756C9.44878 41.0766 9.39398 41.0884 9.34127 41.1121L7.49477 41.9428C7.28394 42.0376 7.18984 42.2855 7.2837 42.4985C7.37761 42.7115 7.62283 42.8066 7.83365 42.7118L9.68016 41.8812C9.89098 41.7864 9.98509 41.5386 9.89123 41.3255C9.82087 41.1658 9.66524 41.0723 9.50291 41.0756V41.0756ZM54.4899 41.0916C54.3275 41.0876 54.1719 41.1815 54.1014 41.3412C54.0074 41.5542 54.1013 41.8021 54.3121 41.8971L56.1579 42.729C56.3686 42.824 56.614 42.7291 56.708 42.5161C56.802 42.3032 56.7081 42.0553 56.4973 41.9603L54.6515 41.1283C54.5989 41.1045 54.544 41.0927 54.4899 41.0916V41.0916ZM13.0979 42.0037C13.018 41.9977 12.9354 42.0157 12.8605 42.0595L8.69948 44.487C8.49962 44.6036 8.43163 44.86 8.54702 45.0619C8.66241 45.2639 8.91615 45.3326 9.11601 45.216L13.277 42.7887C13.4769 42.6721 13.5448 42.4155 13.4295 42.2135C13.3573 42.0873 13.2312 42.0131 13.0979 42.0037V42.0037ZM50.9017 42.0037C50.7684 42.0127 50.6421 42.0873 50.57 42.2135C50.4546 42.4155 50.5226 42.672 50.7225 42.7886L54.8834 45.2159C55.0833 45.3325 55.3372 45.2638 55.4526 45.0619C55.568 44.8599 55.5 44.6035 55.3002 44.4869L51.139 42.0595C51.0641 42.0158 50.9816 41.9981 50.9017 42.0037V42.0037ZM12.0601 45.566C11.9799 45.569 11.8997 45.5951 11.8296 45.6465L10.1938 46.8458C10.007 46.9827 9.96568 47.2449 10.1012 47.4336C10.2367 47.6224 10.4962 47.6641 10.6829 47.5271L12.3189 46.3278C12.5057 46.1909 12.547 45.9287 12.4115 45.74C12.3268 45.622 12.1936 45.5613 12.0601 45.5659V45.566ZM51.9295 45.5802C51.7959 45.5752 51.6628 45.636 51.578 45.7538C51.4424 45.9425 51.4835 46.2048 51.6702 46.3419L53.3053 47.5423C53.492 47.6793 53.7515 47.6378 53.8871 47.4491C54.0227 47.2604 53.9817 46.9983 53.7951 46.8612L52.16 45.6608C52.09 45.6094 52.0096 45.583 51.9295 45.5801L51.9295 45.5802ZM15.765 45.7255C15.6586 45.7195 15.5502 45.7553 15.4644 45.8332L11.8911 49.0789C11.7195 49.2348 11.7055 49.4998 11.8598 49.6733C12.0141 49.8467 12.2764 49.8608 12.4481 49.7049L16.0213 46.4592C16.1929 46.3033 16.2069 46.0382 16.0526 45.8648C15.9755 45.7781 15.8713 45.7312 15.765 45.7255ZM48.2246 45.7371C48.1182 45.7431 48.014 45.7896 47.9368 45.8763C47.7823 46.0496 47.7962 46.3146 47.9677 46.4706L51.5386 49.7188C51.7101 49.8749 51.9726 49.8609 52.127 49.6876C52.2814 49.5143 52.2676 49.2493 52.0961 49.0933L48.525 45.8451C48.4392 45.7671 48.3309 45.7315 48.2246 45.7371V45.7371ZM19.1549 48.8206C19.0213 48.8156 18.8881 48.8759 18.8032 48.9938L15.9767 52.9198C15.841 53.1084 15.8818 53.3707 16.0684 53.5078C16.255 53.645 16.5146 53.6037 16.6503 53.4151L19.4768 49.4892C19.6126 49.3006 19.5717 49.0383 19.3852 48.9011C19.3152 48.8497 19.235 48.8234 19.1549 48.8206ZM44.8214 48.8381C44.7412 48.8411 44.661 48.8671 44.5909 48.9184C44.4041 49.0554 44.3628 49.3175 44.4982 49.5063L47.3195 53.4361C47.455 53.6248 47.7145 53.6666 47.9013 53.5297C48.0881 53.3927 48.1294 53.1306 47.9939 52.9418L45.1727 49.012C45.088 48.8941 44.9549 48.8336 44.8214 48.8382V48.8381ZM15.5061 49.4445C15.3997 49.4505 15.2955 49.497 15.2183 49.5837L13.866 51.1012C13.7115 51.2745 13.7252 51.5398 13.8967 51.6958C14.0682 51.8518 14.3305 51.8378 14.485 51.6645L15.8374 50.1469C15.9919 49.9736 15.978 49.7084 15.8066 49.5524C15.7208 49.4744 15.6125 49.4388 15.5061 49.4445L15.5061 49.4445ZM48.4909 49.4465C48.3845 49.4405 48.2762 49.4764 48.1904 49.5544C48.0189 49.7104 48.0051 49.9755 48.1595 50.1488L49.5116 51.6667C49.666 51.84 49.9283 51.854 50.0998 51.6979C50.2714 51.5419 50.2851 51.2767 50.1307 51.1034L48.7786 49.5856C48.7014 49.4989 48.5971 49.4521 48.4908 49.4465L48.4909 49.4465ZM23.1019 51.1301C22.9396 51.1261 22.7841 51.22 22.7136 51.3797L20.756 55.8134C20.662 56.0264 20.7559 56.2743 20.9667 56.3693C21.1775 56.4643 21.4228 56.3693 21.5168 56.1564L23.4744 51.7227C23.5684 51.5097 23.4745 51.2618 23.2637 51.1668C23.2111 51.143 23.156 51.1312 23.1019 51.1301ZM40.8711 51.1423C40.817 51.1433 40.762 51.1551 40.7093 51.1788C40.4985 51.2735 40.4041 51.5212 40.4979 51.7343L42.4494 56.1707C42.5431 56.3837 42.7884 56.4791 42.9993 56.3844C43.2101 56.2897 43.3045 56.042 43.2107 55.8289L41.2592 51.3924C41.189 51.2327 41.0334 51.1392 40.8711 51.1423ZM19.662 52.5009C19.5287 52.5099 19.4026 52.5845 19.3305 52.7107L18.32 54.4794C18.2046 54.6813 18.2726 54.9377 18.4724 55.0543C18.6723 55.1709 18.9261 55.1022 19.0414 54.9002L20.052 53.1316C20.1674 52.9297 20.0994 52.6733 19.8995 52.5567C19.8246 52.513 19.742 52.4953 19.662 52.5009V52.5009ZM44.3374 52.5009C44.2574 52.4949 44.1751 52.513 44.1001 52.5567C43.9003 52.6733 43.8323 52.9297 43.9477 53.1317L44.9582 54.9003C45.0736 55.1022 45.3273 55.1709 45.5272 55.0543C45.7271 54.9377 45.795 54.6813 45.6796 54.4794L44.6691 52.7108C44.597 52.5845 44.4707 52.5104 44.3374 52.5009V52.5009ZM27.4599 52.5643C27.2659 52.5623 27.092 52.6983 27.05 52.8978L26.0515 57.6469C26.0036 57.875 26.1468 58.0976 26.3725 58.1461C26.5982 58.1946 26.8185 58.0499 26.8665 57.8218L27.865 53.0728C27.913 52.8447 27.7698 52.622 27.5441 52.5736C27.5159 52.5676 27.4877 52.5646 27.46 52.5646L27.4599 52.5643ZM36.5248 52.5673C36.497 52.5675 36.469 52.5703 36.4408 52.5763C36.2151 52.6246 36.0718 52.847 36.1196 53.0751L37.1146 57.8249C37.1624 58.0531 37.3827 58.1978 37.6085 58.1496C37.8343 58.1013 37.9776 57.8787 37.9298 57.6506L36.9345 52.9011C36.8926 52.7015 36.7188 52.5657 36.5248 52.5672L36.5248 52.5673ZM31.9997 53.0464C31.7689 53.0464 31.5832 53.2341 31.5832 53.4672V58.3222C31.5832 58.5554 31.7689 58.7431 31.9997 58.7431C32.2305 58.7431 32.4163 58.5554 32.4163 58.3222V53.4672C32.4163 53.2341 32.2305 53.0464 31.9997 53.0464ZM24.3534 54.6151C24.1916 54.629 24.0464 54.7384 23.9929 54.9047L23.3682 56.847C23.2968 57.0687 23.4161 57.3053 23.6355 57.3774C23.855 57.4495 24.0891 57.3288 24.1605 57.1071L24.7852 55.165C24.8566 54.9433 24.7373 54.7067 24.5179 54.6346C24.463 54.6166 24.4073 54.6106 24.3534 54.6152V54.6151ZM39.6428 54.6161C39.5889 54.6111 39.5332 54.6171 39.4784 54.6354C39.2589 54.7075 39.1395 54.9441 39.2108 55.1659L39.8354 57.1082C39.9067 57.3299 40.1409 57.4503 40.3604 57.3783C40.5798 57.3062 40.6992 57.0698 40.6279 56.848L40.0031 54.9058C39.9496 54.7394 39.8046 54.6301 39.6428 54.6162V54.6161ZM29.385 55.6979C29.1918 55.7167 29.0327 55.8699 29.0116 56.0728L28.8004 58.104C28.7762 58.3359 28.9416 58.5421 29.1711 58.5665C29.4006 58.5909 29.6048 58.4238 29.629 58.1919L29.8402 56.1609C29.8644 55.929 29.699 55.7227 29.4695 55.6983C29.4408 55.6953 29.4126 55.6953 29.385 55.6979L29.385 55.6979ZM34.5977 55.6999C34.5701 55.6969 34.5417 55.6969 34.513 55.7003C34.2835 55.7245 34.1179 55.9306 34.1419 56.1626L34.3519 58.1939C34.3759 58.4258 34.5799 58.5928 34.8094 58.5686C35.039 58.5444 35.2045 58.3382 35.1805 58.1063L34.9707 56.0752C34.9497 55.8723 34.7908 55.7188 34.5976 55.6999L34.5977 55.6999Z"/><g filter="url(#filter1_f)" opacity=".409"><path fill="#000" d="M51.5236 14.5435L28.7333 27.923L14.3236 50.8449L35.4038 35.068L51.5236 14.5435Z"/></g><path fill="#FF5150" d="M35.2656 34.8352L28.7332 27.9227L51.9062 12.1714L35.2656 34.8352Z"/><path fill="#F1F1F1" d="M35.2656 34.8353L28.7332 27.9228L12.0926 50.5866L35.2656 34.8353Z"/><path fill="#000" d="M12.0926 50.5865L35.2656 34.8351L51.9062 12.1714L12.0926 50.5865Z" opacity=".243"/></g><defs><filter id="filter0_f" width="64.463" height="62.85" x="-.232" y="2.519" color-interpolation-filters="sRGB" filterUnits="userSpaceOnUse"><feFlood flood-opacity="0" result="BackgroundImageFix"/><feBlend in="SourceGraphic" in2="BackgroundImageFix" mode="normal" result="shape"/><feGaussianBlur result="effect1_foregroundBlur" stdDeviation="1.184"/></filter><filter id="filter1_f" width="38.547" height="37.648" x="13.65" y="13.87" color-interpolation-filters="sRGB" filterUnits="userSpaceOnUse"><feFlood flood-opacity="0" result="BackgroundImageFix"/><feBlend in="SourceGraphic" in2="BackgroundImageFix" mode="normal" result="shape"/><feGaussianBlur result="effect1_foregroundBlur" stdDeviation=".337"/></filter><linearGradient id="paint0_linear" x1="32" x2="32" y1="62.703" y2=".055" gradientUnits="userSpaceOnUse"><stop stop-color="#BDBDBD"/><stop offset="1" stop-color="#fff"/></linearGradient><radialGradient id="paint1_radial" cx="0" cy="0" r="1" gradientTransform="translate(32.1295 27.17) scale(31.0002 31.324)" gradientUnits="userSpaceOnUse"><stop stop-color="#06C2E7"/><stop offset=".25" stop-color="#0DB8EC"/><stop offset=".5" stop-color="#12AEF1"/><stop offset=".75" stop-color="#1F86F9"/><stop offset="1" stop-color="#107DDD"/></radialGradient><clipPath id="clip0"><rect width="64" height="64" fill="#fff" transform="translate(-0.000457764)"/></clipPath></defs></svg>